# xmcd CD database file
#
# Track frame offsets:
#	150
#	20333
#	37947
#	53571
#	86375
#	100573
#	126407
#	143419
#	160591
#	185617
#
# Disc length: 2635 seconds
#
# Revision: 0
# Processed by: cddbd v1.5.2PL0 Copyright (c) Steve Scherf et al.
# Submitted via: CDex 1.51
#
DISCID=6c0a490a
DTITLE=Mark Massey - Mississippi Lockdown
DYEAR=2011
DGENRE=Blues
TTITLE0=17 Years
TTITLE1=My Name
TTITLE2=How Long
TTITLE3=Masters of the Blues
TTITLE4=It Sure Ain't Me
TTITLE5=Juke Joint Jumpin'
TTITLE6=My Hard Work
TTITLE7=Comin' From the Soul
TTITLE8=Parchman Lockdown
TTITLE9=Dusty Road
EXTD=YEAR: 2011
EXTT0=
EXTT1=
EXTT2=
EXTT3=
EXTT4=
EXTT5=
EXTT6=
EXTT7=
EXTT8=
EXTT9=
PLAYORDER=
